<mxfile host="app.diagrams.net" agent="Mozilla/5.0 (Macintosh; Intel Mac OS X 10_15_7) AppleWebKit/605.1.15 (KHTML, like Gecko) Version/18.3.1 Safari/605.1.15" version="26.1.0">
  <diagram name="Page-1" id="8Ge6GmgyyvxhAvOCxHkT">
    <mxGraphModel dx="710" dy="429" grid="1" gridSize="10" guides="1" tooltips="1" connect="1" arrows="1" fold="1" page="1" pageScale="1" pageWidth="850" pageHeight="1100" math="0" shadow="0">
      <root>
        <mxCell id="0" />
        <mxCell id="1" parent="0" />
        <mxCell id="CgupaPKPlq7J9n2cMQ15-1" value="VPC" style="points=[[0,0],[0.25,0],[0.5,0],[0.75,0],[1,0],[1,0.25],[1,0.5],[1,0.75],[1,1],[0.75,1],[0.5,1],[0.25,1],[0,1],[0,0.75],[0,0.5],[0,0.25]];outlineConnect=0;gradientColor=none;html=1;whiteSpace=wrap;fontSize=12;fontStyle=0;container=1;pointerEvents=0;collapsible=0;recursiveResize=0;shape=mxgraph.aws4.group;grIcon=mxgraph.aws4.group_vpc2;strokeColor=#8C4FFF;fillColor=none;verticalAlign=top;align=left;spacingLeft=30;fontColor=#AAB7B8;dashed=0;" vertex="1" parent="1">
          <mxGeometry x="40" y="120" width="760" height="560" as="geometry" />
        </mxCell>
        <mxCell id="CgupaPKPlq7J9n2cMQ15-5" value="Region" style="points=[[0,0],[0.25,0],[0.5,0],[0.75,0],[1,0],[1,0.25],[1,0.5],[1,0.75],[1,1],[0.75,1],[0.5,1],[0.25,1],[0,1],[0,0.75],[0,0.5],[0,0.25]];outlineConnect=0;gradientColor=none;html=1;whiteSpace=wrap;fontSize=12;fontStyle=0;container=1;pointerEvents=0;collapsible=0;recursiveResize=0;shape=mxgraph.aws4.group;grIcon=mxgraph.aws4.group_region;strokeColor=#00A4A6;fillColor=none;verticalAlign=top;align=left;spacingLeft=30;fontColor=#147EBA;dashed=1;" vertex="1" parent="CgupaPKPlq7J9n2cMQ15-1">
          <mxGeometry x="38" y="40" width="682" height="480" as="geometry" />
        </mxCell>
        <mxCell id="CgupaPKPlq7J9n2cMQ15-30" value="Private subnet" style="points=[[0,0],[0.25,0],[0.5,0],[0.75,0],[1,0],[1,0.25],[1,0.5],[1,0.75],[1,1],[0.75,1],[0.5,1],[0.25,1],[0,1],[0,0.75],[0,0.5],[0,0.25]];outlineConnect=0;gradientColor=none;html=1;whiteSpace=wrap;fontSize=12;fontStyle=0;container=1;pointerEvents=0;collapsible=0;recursiveResize=0;shape=mxgraph.aws4.group;grIcon=mxgraph.aws4.group_security_group;grStroke=0;strokeColor=#00A4A6;fillColor=#E6F6F7;verticalAlign=top;align=left;spacingLeft=30;fontColor=#147EBA;dashed=0;" vertex="1" parent="CgupaPKPlq7J9n2cMQ15-5">
          <mxGeometry x="481" y="160" width="158" height="180" as="geometry" />
        </mxCell>
        <mxCell id="CgupaPKPlq7J9n2cMQ15-31" value="Security group" style="fillColor=none;strokeColor=#DD3522;verticalAlign=top;fontStyle=0;fontColor=#DD3522;whiteSpace=wrap;html=1;" vertex="1" parent="CgupaPKPlq7J9n2cMQ15-30">
          <mxGeometry x="14" y="39.5" width="130" height="130" as="geometry" />
        </mxCell>
        <mxCell id="CgupaPKPlq7J9n2cMQ15-15" value="" style="outlineConnect=0;dashed=0;verticalLabelPosition=bottom;verticalAlign=top;align=center;html=1;shape=mxgraph.aws3.lambda;fillColor=#F58534;gradientColor=none;" vertex="1" parent="CgupaPKPlq7J9n2cMQ15-30">
          <mxGeometry x="39" y="70" width="30" height="30" as="geometry" />
        </mxCell>
        <mxCell id="CgupaPKPlq7J9n2cMQ15-17" value="&lt;font style=&quot;font-size: 8px;&quot;&gt;Python 3.12&lt;/font&gt;" style="sketch=0;outlineConnect=0;fontColor=#232F3E;gradientColor=none;fillColor=#ED7100;strokeColor=none;dashed=0;verticalLabelPosition=bottom;verticalAlign=top;align=center;html=1;fontSize=12;fontStyle=0;aspect=fixed;pointerEvents=1;shape=mxgraph.aws4.lambda_function;" vertex="1" parent="CgupaPKPlq7J9n2cMQ15-30">
          <mxGeometry x="40" y="110" width="29" height="29" as="geometry" />
        </mxCell>
        <mxCell id="CgupaPKPlq7J9n2cMQ15-16" value="&lt;font style=&quot;font-size: 8px;&quot;&gt;PDF Conversion&lt;/font&gt;" style="sketch=0;outlineConnect=0;fontColor=#232F3E;gradientColor=none;fillColor=#7AA116;strokeColor=none;dashed=0;verticalLabelPosition=bottom;verticalAlign=top;align=center;html=1;fontSize=12;fontStyle=0;aspect=fixed;pointerEvents=1;shape=mxgraph.aws4.s3_object_lambda_access_points;" vertex="1" parent="CgupaPKPlq7J9n2cMQ15-30">
          <mxGeometry x="90" y="89.5" width="30" height="30" as="geometry" />
        </mxCell>
        <mxCell id="CgupaPKPlq7J9n2cMQ15-6" value="Private subnet" style="points=[[0,0],[0.25,0],[0.5,0],[0.75,0],[1,0],[1,0.25],[1,0.5],[1,0.75],[1,1],[0.75,1],[0.5,1],[0.25,1],[0,1],[0,0.75],[0,0.5],[0,0.25]];outlineConnect=0;gradientColor=none;html=1;whiteSpace=wrap;fontSize=12;fontStyle=0;container=1;pointerEvents=0;collapsible=0;recursiveResize=0;shape=mxgraph.aws4.group;grIcon=mxgraph.aws4.group_security_group;grStroke=0;strokeColor=#00A4A6;fillColor=#E6F6F7;verticalAlign=top;align=left;spacingLeft=30;fontColor=#147EBA;dashed=0;" vertex="1" parent="CgupaPKPlq7J9n2cMQ15-5">
          <mxGeometry x="42" y="160" width="168" height="180" as="geometry" />
        </mxCell>
        <mxCell id="CgupaPKPlq7J9n2cMQ15-9" value="Security group" style="fillColor=none;strokeColor=#DD3522;verticalAlign=top;fontStyle=0;fontColor=#DD3522;whiteSpace=wrap;html=1;" vertex="1" parent="CgupaPKPlq7J9n2cMQ15-6">
          <mxGeometry x="20.099999999999994" y="38" width="130" height="130" as="geometry" />
        </mxCell>
        <mxCell id="CgupaPKPlq7J9n2cMQ15-4" value="&lt;font style=&quot;font-size: 8px;&quot;&gt;Ruby Cluster&lt;/font&gt;" style="outlineConnect=0;dashed=0;verticalLabelPosition=bottom;verticalAlign=top;align=center;html=1;shape=mxgraph.aws3.ecs;fillColor=#F58534;gradientColor=none;" vertex="1" parent="CgupaPKPlq7J9n2cMQ15-6">
          <mxGeometry x="43" y="67" width="30" height="30" as="geometry" />
        </mxCell>
        <mxCell id="CgupaPKPlq7J9n2cMQ15-3" value="" style="points=[];aspect=fixed;html=1;align=center;shadow=0;dashed=0;fillColor=#FF6A00;strokeColor=none;shape=mxgraph.alibaba_cloud.ecs_elastic_compute_service;" vertex="1" parent="CgupaPKPlq7J9n2cMQ15-6">
          <mxGeometry x="109" y="72" width="21.46" height="20" as="geometry" />
        </mxCell>
        <mxCell id="CgupaPKPlq7J9n2cMQ15-10" value="&lt;font style=&quot;font-size: 8px;&quot;&gt;Ruby 3.4.1&lt;/font&gt;" style="sketch=0;outlineConnect=0;fontColor=#232F3E;gradientColor=none;fillColor=#ED7100;strokeColor=none;dashed=0;verticalLabelPosition=bottom;verticalAlign=top;align=center;html=1;fontSize=12;fontStyle=0;aspect=fixed;pointerEvents=1;shape=mxgraph.aws4.container_3;" vertex="1" parent="CgupaPKPlq7J9n2cMQ15-6">
          <mxGeometry x="40.480000000000004" y="126.5" width="32.52" height="21" as="geometry" />
        </mxCell>
        <mxCell id="CgupaPKPlq7J9n2cMQ15-11" value="" style="sketch=0;outlineConnect=0;fontColor=#232F3E;gradientColor=none;fillColor=#ED7100;strokeColor=none;dashed=0;verticalLabelPosition=bottom;verticalAlign=top;align=center;html=1;fontSize=12;fontStyle=0;aspect=fixed;pointerEvents=1;shape=mxgraph.aws4.ecs_task;" vertex="1" parent="CgupaPKPlq7J9n2cMQ15-6">
          <mxGeometry x="109" y="122" width="23.13" height="30" as="geometry" />
        </mxCell>
        <mxCell id="CgupaPKPlq7J9n2cMQ15-7" value="Public subnet" style="points=[[0,0],[0.25,0],[0.5,0],[0.75,0],[1,0],[1,0.25],[1,0.5],[1,0.75],[1,1],[0.75,1],[0.5,1],[0.25,1],[0,1],[0,0.75],[0,0.5],[0,0.25]];outlineConnect=0;gradientColor=none;html=1;whiteSpace=wrap;fontSize=12;fontStyle=0;container=1;pointerEvents=0;collapsible=0;recursiveResize=0;shape=mxgraph.aws4.group;grIcon=mxgraph.aws4.group_security_group;grStroke=0;strokeColor=#7AA116;fillColor=#F2F6E8;verticalAlign=top;align=left;spacingLeft=30;fontColor=#248814;dashed=0;" vertex="1" parent="CgupaPKPlq7J9n2cMQ15-5">
          <mxGeometry x="42" y="40" width="598" height="80" as="geometry" />
        </mxCell>
        <mxCell id="CgupaPKPlq7J9n2cMQ15-2" value="" style="outlineConnect=0;dashed=0;verticalLabelPosition=bottom;verticalAlign=top;align=center;html=1;shape=mxgraph.aws3.elastic_load_balancing;fillColor=#F58534;gradientColor=none;" vertex="1" parent="CgupaPKPlq7J9n2cMQ15-7">
          <mxGeometry x="80" y="30" width="30" height="30" as="geometry" />
        </mxCell>
        <mxCell id="CgupaPKPlq7J9n2cMQ15-14" value="&lt;font style=&quot;font-size: 8px;&quot;&gt;Lambda Return SQS&lt;/font&gt;" style="sketch=0;points=[[0,0,0],[0.25,0,0],[0.5,0,0],[0.75,0,0],[1,0,0],[0,1,0],[0.25,1,0],[0.5,1,0],[0.75,1,0],[1,1,0],[0,0.25,0],[0,0.5,0],[0,0.75,0],[1,0.25,0],[1,0.5,0],[1,0.75,0]];outlineConnect=0;fontColor=#232F3E;fillColor=#E7157B;strokeColor=#ffffff;dashed=0;verticalLabelPosition=bottom;verticalAlign=top;align=center;html=1;fontSize=12;fontStyle=0;aspect=fixed;shape=mxgraph.aws4.resourceIcon;resIcon=mxgraph.aws4.sqs;" vertex="1" parent="CgupaPKPlq7J9n2cMQ15-5">
          <mxGeometry x="321.5" y="141" width="39" height="39" as="geometry" />
        </mxCell>
        <mxCell id="CgupaPKPlq7J9n2cMQ15-13" value="&lt;font style=&quot;font-size: 8px;&quot;&gt;PDF Request SQS&lt;/font&gt;" style="sketch=0;points=[[0,0,0],[0.25,0,0],[0.5,0,0],[0.75,0,0],[1,0,0],[0,1,0],[0.25,1,0],[0.5,1,0],[0.75,1,0],[1,1,0],[0,0.25,0],[0,0.5,0],[0,0.75,0],[1,0.25,0],[1,0.5,0],[1,0.75,0]];outlineConnect=0;fontColor=#232F3E;fillColor=#E7157B;strokeColor=#ffffff;dashed=0;verticalLabelPosition=bottom;verticalAlign=top;align=center;html=1;fontSize=12;fontStyle=0;aspect=fixed;shape=mxgraph.aws4.resourceIcon;resIcon=mxgraph.aws4.sqs;" vertex="1" parent="CgupaPKPlq7J9n2cMQ15-5">
          <mxGeometry x="321.5" y="351" width="39" height="39" as="geometry" />
        </mxCell>
        <mxCell id="CgupaPKPlq7J9n2cMQ15-12" value="&lt;font style=&quot;font-size: 8px;&quot;&gt;Document Storage&lt;/font&gt;" style="outlineConnect=0;dashed=0;verticalLabelPosition=bottom;verticalAlign=top;align=center;html=1;shape=mxgraph.aws3.s3;fillColor=#E05243;gradientColor=none;" vertex="1" parent="CgupaPKPlq7J9n2cMQ15-5">
          <mxGeometry x="320.5" y="240" width="40" height="36" as="geometry" />
        </mxCell>
        <mxCell id="CgupaPKPlq7J9n2cMQ15-32" value="&lt;font style=&quot;font-size: 8px;&quot;&gt;Aurora Postgres&lt;/font&gt;" style="outlineConnect=0;dashed=0;verticalLabelPosition=bottom;verticalAlign=top;align=center;html=1;shape=mxgraph.aws3.rds;fillColor=#2E73B8;gradientColor=none;" vertex="1" parent="CgupaPKPlq7J9n2cMQ15-5">
          <mxGeometry x="103.1" y="400" width="48" height="50" as="geometry" />
        </mxCell>
        <mxCell id="CgupaPKPlq7J9n2cMQ15-33" value="" style="edgeStyle=orthogonalEdgeStyle;rounded=0;orthogonalLoop=1;jettySize=auto;html=1;" edge="1" parent="CgupaPKPlq7J9n2cMQ15-5" source="CgupaPKPlq7J9n2cMQ15-9" target="CgupaPKPlq7J9n2cMQ15-32">
          <mxGeometry relative="1" as="geometry" />
        </mxCell>
      </root>
    </mxGraphModel>
  </diagram>
</mxfile>
